<svg xmlns="http://www.w3.org/2000/svg" width="32" height="32" viewBox="0 0 32 32" shape-rendering="crispEdges">
  <rect width="32" height="32" fill="none"/>
  <g fill="#17142d"><rect x="8" y="4" width="16" height="4"/><rect x="4" y="8" width="24" height="16"/><rect x="8" y="24" width="16" height="4"/></g>
  <g fill="#5b3ba4"><rect x="8" y="8" width="16" height="4"/><rect x="8" y="20" width="16" height="4"/><rect x="4" y="12" width="4" height="8"/><rect x="24" y="12" width="4" height="8"/></g>
  <rect x="12" y="8" width="8" height="4" fill="#c1a8ff"/><rect x="8" y="12" width="16" height="8" fill="#8368e8"/><rect x="12" y="20" width="8" height="4" fill="#4a2f9e"/>
  <rect x="12" y="12" width="8" height="8" fill="#f6edff"/><rect x="12" y="12" width="4" height="4" fill="#ffffff"/><rect x="16" y="16" width="4" height="4" fill="#c6fff6"/>
  <g fill="#f5d66b"><rect x="12" y="0" width="4" height="4"/><rect x="16" y="28" width="4" height="4"/><rect x="0" y="16" width="4" height="4"/><rect x="28" y="12" width="4" height="4"/></g>
</svg>
